<?xml version="1.0" standalone="no"?>
<!DOCTYPE svg PUBLIC "-//W3C//DTD SVG 20010904//EN"
 "http://www.w3.org/TR/2001/REC-SVG-20010904/DTD/svg10.dtd">
<svg version="1.0" xmlns="http://www.w3.org/2000/svg"
 width="487.000000pt" height="513.000000pt" viewBox="0 0 487.000000 513.000000"
 preserveAspectRatio="xMidYMid meet">

<g transform="translate(0.000000,513.000000) scale(0.100000,-0.100000)"
fill="#000000" stroke="none">
<path d="M1652 3250 c-103 -28 -166 -65 -247 -145 -123 -122 -179 -259 -179
-435 1 -177 56 -313 179 -435 123 -123 247 -171 420 -162 55 3 113 10 128 16
27 10 33 8 84 -39 97 -89 208 -130 351 -130 143 0 204 23 335 127 99 79 143
68 163 -43 11 -63 12 -44 13 202 1 259 2 273 22 298 11 14 30 26 42 26 12 0
29 5 37 10 10 6 -56 10 -195 9 -126 0 -202 -4 -190 -9 11 -5 32 -9 48 -9 15
-1 36 -10 47 -21 18 -18 20 -33 20 -172 -1 -173 -10 -228 -47 -276 -58 -76
-212 -100 -335 -53 -62 24 -144 92 -178 147 l-22 34 62 67 c103 110 160 255
160 410 0 113 -14 172 -67 282 -49 102 -49 102 17 121 109 33 255 18 345 -35
85 -50 172 -167 198 -267 14 -53 16 -1 5 160 -6 95 -15 172 -20 172 -4 0 -8
-6 -8 -14 0 -19 -39 -46 -66 -46 -12 0 -64 16 -115 36 -123 47 -252 56 -369
26 l-75 -20 -45 42 c-97 91 -207 135 -350 142 -74 3 -111 0 -168 -16z m283
-32 c54 -28 133 -105 159 -156 l16 -30 -69 -69 c-121 -121 -174 -264 -174
-468 1 -135 17 -214 64 -306 16 -32 29 -62 29 -67 0 -16 -85 -37 -150 -37
-142 1 -248 73 -319 215 -59 119 -76 205 -76 390 0 130 4 168 23 233 43 150
119 257 217 304 44 21 61 24 140 20 72 -3 100 -8 140 -29z m246 -462 c17 -153
-9 -353 -59 -451 l-15 -30 -18 53 c-61 178 -44 453 34 582 l21 34 13 -43 c7
-24 18 -89 24 -145z"/>
<path d="M2797 2679 c4 -13 8 -18 11 -10 2 7 -1 18 -6 23 -8 8 -9 4 -5 -13z"/>
<path d="M2872 2670 c0 -19 2 -27 5 -17 2 9 2 25 0 35 -3 9 -5 1 -5 -18z"/>
<path d="M3013 2660 c0 -25 2 -35 4 -22 2 12 2 32 0 45 -2 12 -4 2 -4 -23z"/>
<path d="M3195 2689 c-4 -6 -5 -12 -2 -15 2 -3 7 2 10 11 7 17 1 20 -8 4z"/>
<path d="M3473 2660 c0 -25 2 -35 4 -22 2 12 2 32 0 45 -2 12 -4 2 -4 -23z"/>
<path d="M3583 2660 c0 -25 2 -35 4 -22 2 12 2 32 0 45 -2 12 -4 2 -4 -23z"/>
<path d="M3324 2675 c-3 -8 -4 -20 -2 -27 3 -7 7 -1 10 15 6 29 1 36 -8 12z"/>
<path d="M3638 2663 c5 -21 7 -23 10 -9 2 10 0 22 -6 28 -6 6 -7 0 -4 -19z"/>
<path d="M2730 2656 c0 -14 4 -27 8 -30 5 -3 6 8 4 25 -5 35 -12 38 -12 5z"/>
<path d="M3397 2651 c-4 -17 -3 -21 5 -13 5 5 8 16 6 23 -3 8 -7 3 -11 -10z"/>
<path d="M3190 2641 c0 -6 4 -13 10 -16 6 -3 7 1 4 9 -7 18 -14 21 -14 7z"/>
</g>
</svg>
